<?xml version="1.0" encoding="utf-8"?>
<!-- Generator: Adobe Illustrator 18.0.0, SVG Export Plug-In . SVG Version: 6.00 Build 0)  -->
<!DOCTYPE svg PUBLIC "-//W3C//DTD SVG 1.1//EN" "http://www.w3.org/Graphics/SVG/1.1/DTD/svg11.dtd">
<svg version="1.1" xmlns="http://www.w3.org/2000/svg" xmlns:xlink="http://www.w3.org/1999/xlink" x="0px" y="0px"
	 viewBox="0 0 1440.47 302.66" enable-background="new 0 0 1440.47 302.66" xml:space="preserve">
<g id="Vertical_Lockup_600px">
</g>
<g id="Vertical_Lockup_200px">
</g>
<g id="Vertical_Lockup_for_export">
</g>
<g id="Horizontal_Lockup_600px">
</g>
<g id="Horizontal_Lockup_200pc">
</g>
<g id="Horizontal_Lockup_for_export">
	<g>
		<g>
			<path fill="#11242F" d="M258.39,109.876l0.001-0.003c-10.54-22.786-27.454-34.274-27.454-34.274
				c-7.36,1.229-25.382,15.675-18.779,38.856c3.695,17.133,22.779,21.266,24.237,54.76c0.554,12.728-4.364,23.113-11.569,30.799
				c-6.098,6.296-13.847,11.124-22.347,13.829c-0.061,0.018-0.121,0.037-0.182,0.055l0.005,0.001
				c-4.14,1.301-8.456,2.1-12.844,2.319c-2.954,0-5.349,2.395-5.349,5.348c0,2.832,2.202,5.153,4.987,5.339
				c1.309,0.102,2.633,0.156,3.968,0.156c41.27,0,74.8-33.503,74.8-74.772C267.865,137.14,264.444,122.748,258.39,109.876z"/>
			<path fill="#11242F" d="M168.072,152.355c-15.334,0-25.141,12.092-25.141,25.358c0,8.39,5.022,17.437,13.428,21.86
				c8.137,4.282,7.531,16.706-7.208,16.706c-5.233,0-10.392-0.838-15.304-2.382l0,0l0,0c-8.575-2.695-16.395-7.549-22.538-13.894
				c-7.2-7.686-12.113-18.067-11.559-30.79c1.458-33.494,20.541-37.626,24.237-54.76c6.603-23.181-11.419-37.626-18.779-38.856
				c0,0-16.914,11.488-27.454,34.274l0.001,0.003c-6.053,12.873-9.475,27.265-9.475,42.413c0,41.27,33.53,74.772,74.8,74.772
				c27.463,0,49.809-22.013,49.809-50.17C193.258,165.803,183.407,152.355,168.072,152.355z"/>
		</g>
		<g>
			<path fill="#11242F" d="M352.018,106.307h22.949l10.72,34.273l11.022-34.273h22.798l-17.967,49.824l10.871,28.837l27.026-78.812
				h26.875l-42.728,107.197h-20.836l-16.91-41.973l-17.061,41.973h-20.684l-42.728-107.197h26.724l27.176,78.812l10.569-28.837
				L352.018,106.307z"/>
			<path fill="#11242F" d="M475.823,213.353V106.156h24.761v107.197H475.823z"/>
			<path fill="#11242F" d="M521.116,213.353V106.156h24.761v48.314l41.369-48.314h25.667l-40.161,47.861l42.879,59.336h-26.12
				l-31.404-45.445l-12.23,13.286v32.159H521.116z"/>
			<path fill="#11242F" d="M623.328,213.353V106.156h24.761v107.197H623.328z"/>
			<path fill="#11242F" d="M750.301,127.898H717.69v85.455h-24.761v-85.455h-32.763v-21.741h90.135V127.898z"/>
			<path fill="#11242F" d="M804.655,214.259c-7.65,0-14.596-1.56-20.836-4.681c-6.242-3.119-11.602-7.221-16.08-12.305
				c-4.48-5.081-7.952-10.894-10.418-17.439c-2.467-6.542-3.699-13.286-3.699-20.231c0-7.044,1.283-13.839,3.85-20.382
				c2.567-6.542,6.138-12.305,10.72-17.288c4.579-4.983,10.014-8.957,16.306-11.928c6.289-2.967,13.159-4.454,20.609-4.454
				c7.648,0,14.594,1.562,20.836,4.681c6.24,3.121,11.6,7.247,16.08,12.38c4.477,5.134,7.926,10.972,10.342,17.514
				c2.416,6.544,3.624,13.187,3.624,19.93c0,7.046-1.283,13.841-3.85,20.382c-2.567,6.544-6.115,12.305-10.644,17.288
				c-4.529,4.982-9.941,8.983-16.231,12.003C818.972,212.749,812.102,214.259,804.655,214.259z M778.837,159.906
				c0,4.128,0.578,8.13,1.736,12.003c1.156,3.876,2.817,7.323,4.982,10.342c2.164,3.02,4.881,5.435,8.153,7.247
				c3.27,1.812,7.021,2.718,11.248,2.718c4.326,0,8.101-0.956,11.323-2.869c3.22-1.911,5.912-4.402,8.078-7.474
				c2.163-3.069,3.775-6.542,4.831-10.418c1.057-3.873,1.585-7.825,1.585-11.852c0-4.126-0.58-8.127-1.736-12.003
				c-1.158-3.874-2.845-7.297-5.058-10.267c-2.215-2.968-4.933-5.334-8.153-7.096c-3.223-1.76-6.896-2.642-11.022-2.642
				c-4.329,0-8.103,0.932-11.324,2.793c-3.223,1.864-5.914,4.303-8.078,7.322c-2.165,3.02-3.8,6.469-4.907,10.342
				C779.389,151.93,778.837,155.881,778.837,159.906z"/>
			<path fill="#11242F" d="M895.242,152.055v61.299h-24.761V106.156h19.326l49.975,62.959v-62.959h24.761v107.197h-19.929
				L895.242,152.055z"/>
			<path fill="#11242F" d="M1054.526,202.936c-3.827,3.826-7.877,6.643-12.154,8.455c-4.28,1.812-8.934,2.718-13.966,2.718
				c-6.745,0-13.112-1.51-19.099-4.53c-5.99-3.02-11.224-7.044-15.702-12.079c-4.48-5.032-8.028-10.894-10.644-17.589
				c-2.619-6.693-3.926-13.664-3.926-20.911c0-7.346,1.307-14.291,3.926-20.835c2.616-6.542,6.24-12.23,10.871-17.061
				c4.628-4.832,10.063-8.656,16.306-11.475c6.24-2.817,12.985-4.228,20.232-4.228c9.459,0,17.764,2.09,24.912,6.266
				c7.145,4.178,12.48,9.889,16.004,17.137l-18.571,13.89c-2.215-4.832-5.411-8.58-9.587-11.248
				c-4.178-2.665-8.681-4.001-13.512-4.001c-3.827,0-7.273,0.83-10.342,2.491c-3.071,1.661-5.737,3.977-8.002,6.945
				c-2.265,2.97-4.001,6.417-5.209,10.342c-1.208,3.926-1.812,8.153-1.812,12.683c0,4.631,0.653,8.908,1.963,12.833
				c1.307,3.926,3.119,7.323,5.436,10.191c2.314,2.869,5.081,5.11,8.304,6.719c3.22,1.611,6.742,2.416,10.569,2.416
				c4.428,0,8.656-1.081,12.683-3.246c4.024-2.163,7.799-5.459,11.324-9.889v-3.624h-20.684v-17.967h41.218v56.014h-20.533V202.936z
				"/>
			<path fill="#11242F" d="M1137.413,192.216c4.228,0,7.799-0.88,10.72-2.642c2.918-1.76,5.285-4.1,7.096-7.02
				c1.812-2.918,3.095-6.266,3.85-10.04c0.755-3.775,1.132-7.625,1.132-11.55v-54.806h24.761v54.806
				c0,7.45-0.932,14.395-2.793,20.835c-1.864,6.442-4.732,12.078-8.606,16.91c-3.876,4.832-8.809,8.632-14.796,11.399
				c-5.99,2.77-13.112,4.152-21.364,4.152c-8.556,0-15.853-1.458-21.892-4.379c-6.039-2.918-10.946-6.818-14.72-11.701
				c-3.775-4.881-6.544-10.543-8.304-16.986c-1.762-6.44-2.642-13.185-2.642-20.231v-54.806h24.761v54.806
				c0,4.128,0.401,8.054,1.208,11.776c0.805,3.725,2.114,7.047,3.926,9.965c1.812,2.92,4.152,5.234,7.021,6.945
				C1129.638,191.362,1133.186,192.216,1137.413,192.216z"/>
			<path fill="#11242F" d="M1279.335,191.612v21.741h-75.34V106.156h73.981v21.741h-49.22v20.835h42.275v20.08h-42.275v22.798
				H1279.335z"/>
			<path fill="#11242F" d="M1358.149,137.56c-0.403-0.401-1.51-1.156-3.322-2.265c-1.812-1.107-4.077-2.265-6.794-3.473
				c-2.718-1.208-5.688-2.265-8.908-3.171c-3.222-0.906-6.443-1.359-9.663-1.359c-4.228,0-7.473,0.755-9.738,2.265
				c-2.265,1.51-3.397,3.725-3.397,6.643c0,1.812,0.502,3.322,1.51,4.53c1.005,1.208,2.44,2.291,4.303,3.246
				c1.861,0.958,4.175,1.838,6.945,2.642c2.767,0.807,5.964,1.713,9.587,2.718c5.133,1.411,9.761,2.944,13.89,4.605
				c4.126,1.661,7.648,3.725,10.569,6.19c2.918,2.468,5.157,5.462,6.718,8.983c1.56,3.525,2.34,7.752,2.34,12.683
				c0,6.039-1.132,11.149-3.397,15.325c-2.265,4.178-5.261,7.549-8.983,10.116c-3.725,2.567-8.028,4.43-12.909,5.587
				c-4.883,1.156-9.889,1.736-15.022,1.736c-3.926,0-7.927-0.302-12.004-0.906c-4.077-0.604-8.077-1.484-12.003-2.642
				c-3.926-1.156-7.752-2.54-11.475-4.152c-3.725-1.609-7.148-3.473-10.267-5.587l10.871-21.59c0.503,0.505,1.861,1.46,4.077,2.869
				c2.213,1.411,4.93,2.819,8.153,4.227c3.22,1.411,6.844,2.668,10.871,3.775c4.024,1.109,8.101,1.661,12.229,1.661
				c8.757,0,13.136-2.666,13.136-8.002c0-2.012-0.656-3.673-1.963-4.982c-1.309-1.307-3.121-2.491-5.435-3.548
				c-2.317-1.057-5.034-2.038-8.153-2.944c-3.121-0.906-6.544-1.911-10.267-3.02c-4.933-1.51-9.21-3.144-12.834-4.907
				c-3.624-1.76-6.643-3.798-9.059-6.115c-2.416-2.314-4.204-4.982-5.36-8.002c-1.158-3.02-1.736-6.541-1.736-10.569
				c0-5.636,1.057-10.618,3.171-14.947c2.114-4.327,4.983-7.976,8.606-10.946c3.624-2.968,7.825-5.209,12.607-6.719
				c4.779-1.51,9.837-2.265,15.173-2.265c3.824,0,7.549,0.354,11.173,1.057c3.624,0.705,7.07,1.611,10.342,2.718
				c3.27,1.109,6.365,2.366,9.285,3.775c2.918,1.411,5.534,2.819,7.851,4.228L1358.149,137.56z"/>
		</g>
	</g>
</g>
</svg>
