<?xml version="1.0" encoding="utf-8"?>
<!-- Generator: Adobe Illustrator 17.1.0, SVG Export Plug-In . SVG Version: 6.00 Build 0)  -->
<!DOCTYPE svg PUBLIC "-//W3C//DTD SVG 1.1//EN" "http://www.w3.org/Graphics/SVG/1.1/DTD/svg11.dtd">
<svg version="1.1" xmlns="http://www.w3.org/2000/svg" xmlns:xlink="http://www.w3.org/1999/xlink" x="0px" y="0px"
	 viewBox="0 0 250 250" enable-background="new 0 0 250 250" xml:space="preserve">
<g id="Logo_Variations">
</g>
<g id="Logo_-_For_Export">
	<g id="Icon_-_White">
		<path fill="#FFFFFF" d="M215.506,83.459l0.001-0.003c-10.562-22.834-27.511-34.345-27.511-34.345
			c-7.375,1.232-25.434,15.708-18.818,38.937c3.703,17.169,22.826,21.31,24.287,54.874c0.555,12.754-4.373,23.161-11.593,30.863
			c-6.111,6.309-13.876,11.147-22.394,13.857c-0.061,0.018-0.122,0.038-0.182,0.055l0.005,0.001
			c-4.149,1.304-8.474,2.104-12.871,2.324c-2.96,0-5.36,2.4-5.36,5.36c0,2.838,2.206,5.163,4.997,5.35
			c1.312,0.103,2.638,0.157,3.976,0.157c41.356,0,74.956-33.572,74.956-74.928C225,110.781,221.572,96.359,215.506,83.459z"/>
		<path fill="#FFFFFF" d="M125,126.027c-15.366,0-25.193,12.118-25.193,25.411c0,8.408,5.033,17.473,13.456,21.905
			c8.154,4.291,7.546,16.741-7.223,16.741c-5.244,0-10.414-0.84-15.336-2.387l0,0l0,0c-8.593-2.7-16.429-7.564-22.585-13.923
			c-7.215-7.701-12.138-18.105-11.583-30.854c1.461-33.564,20.584-37.705,24.287-54.874c6.616-23.229-11.443-37.705-18.818-38.937
			c0,0-16.95,11.512-27.511,34.345l0.001,0.003C28.428,96.359,25,110.781,25,125.961c0,41.356,33.6,74.928,74.956,74.928
			c27.52,0,49.912-22.059,49.912-50.274C150.238,139.503,140.366,126.027,125,126.027z"/>
	</g>
</g>
</svg>
