<?xml version="1.0" encoding="utf-8"?>
<!-- Generator: Adobe Illustrator 17.1.0, SVG Export Plug-In . SVG Version: 6.00 Build 0)  -->
<!DOCTYPE svg PUBLIC "-//W3C//DTD SVG 1.1//EN" "http://www.w3.org/Graphics/SVG/1.1/DTD/svg11.dtd">
<svg version="1.1" xmlns="http://www.w3.org/2000/svg" xmlns:xlink="http://www.w3.org/1999/xlink" x="0px" y="0px"
	 viewBox="0 0 751.05 387.78" enable-background="new 0 0 751.05 387.78" xml:space="preserve">
<g id="Logo_Variations">
</g>
<g id="Vertical_Lockup_600px">
</g>
<g id="Vertical_Lockup_200px">
	<g id="Icon_3_">
		<g>
			<path fill="#11242F" d="M466.031,109.347l0.001-0.003C455.47,86.511,438.52,74.999,438.52,74.999
				c-7.375,1.232-25.434,15.708-18.818,38.937c3.703,17.169,22.826,21.31,24.287,54.874c0.555,12.754-4.373,23.161-11.593,30.863
				c-6.111,6.309-13.876,11.147-22.394,13.857c-0.061,0.018-0.122,0.037-0.182,0.055l0.005,0.001
				c-4.149,1.304-8.474,2.104-12.871,2.324c-2.96,0-5.36,2.4-5.36,5.36c0,2.838,2.206,5.163,4.997,5.35
				c1.312,0.103,2.638,0.157,3.976,0.157c41.356,0,74.956-33.572,74.956-74.928C475.525,136.668,472.097,122.246,466.031,109.347z"
				/>
			<path fill="#11242F" d="M375.525,151.915c-15.366,0-25.193,12.118-25.193,25.411c0,8.408,5.033,17.473,13.456,21.905
				c8.154,4.291,7.546,16.741-7.223,16.741c-5.244,0-10.414-0.84-15.336-2.387l0,0c0,0,0,0,0,0
				c-8.593-2.7-16.429-7.564-22.585-13.923c-7.215-7.701-12.138-18.105-11.583-30.854c1.461-33.564,20.584-37.705,24.287-54.874
				c6.616-23.229-11.443-37.705-18.818-38.937c0,0-16.95,11.512-27.511,34.345l0.001,0.003c-6.066,12.899-9.494,27.321-9.494,42.501
				c0,41.356,33.6,74.928,74.956,74.928c27.52,0,49.912-22.059,49.912-50.274C400.762,165.39,390.891,151.915,375.525,151.915z"/>
		</g>
		<g>
			<path fill="#11242F" d="M101.284,251.791h12.93l6.039,19.309l6.21-19.309h12.844l-10.123,28.071l6.125,16.247l15.226-44.403
				h15.141l-24.073,60.395h-11.739l-9.527-23.647l-9.612,23.647H99.073L75,251.706h15.056l15.311,44.403l5.954-16.247
				L101.284,251.791z"/>
			<path fill="#11242F" d="M171.036,312.101v-60.395h13.95v60.395H171.036z"/>
			<path fill="#11242F" d="M196.554,312.101v-60.395h13.95v27.22l23.307-27.22h14.461l-22.627,26.965l24.158,33.43h-14.716
				l-17.693-25.604l-6.89,7.485v18.118H196.554z"/>
			<path fill="#11242F" d="M254.141,312.101v-60.395h13.95v60.395H254.141z"/>
			<path fill="#11242F" d="M325.677,263.955h-18.373v48.146h-13.951v-48.146h-18.458v-12.249h50.783V263.955z"/>
			<path fill="#11242F" d="M356.3,312.611c-4.31,0-8.223-0.879-11.739-2.637c-3.517-1.757-6.536-4.068-9.059-6.933
				c-2.524-2.863-4.48-6.138-5.869-9.825c-1.39-3.686-2.084-7.485-2.084-11.398c0-3.969,0.723-7.797,2.169-11.483
				c1.446-3.686,3.458-6.933,6.039-9.74c2.58-2.807,5.642-5.047,9.187-6.72c3.543-1.672,7.414-2.509,11.611-2.509
				c4.309,0,8.222,0.88,11.739,2.637c3.516,1.758,6.535,4.083,9.059,6.975c2.523,2.892,4.466,6.182,5.827,9.867
				c1.361,3.687,2.042,7.43,2.042,11.229c0,3.97-0.723,7.798-2.169,11.483c-1.446,3.687-3.445,6.933-5.997,9.74
				c-2.552,2.807-5.601,5.061-9.144,6.762C364.367,311.76,360.496,312.611,356.3,312.611z M341.754,281.988
				c0,2.326,0.326,4.58,0.978,6.762c0.651,2.184,1.587,4.126,2.807,5.827c1.219,1.701,2.75,3.062,4.593,4.083
				c1.842,1.021,3.956,1.531,6.337,1.531c2.438,0,4.564-0.538,6.379-1.616c1.814-1.077,3.331-2.48,4.551-4.211
				c1.219-1.729,2.127-3.686,2.722-5.869c0.596-2.182,0.893-4.409,0.893-6.677c0-2.325-0.327-4.579-0.978-6.762
				c-0.653-2.183-1.603-4.111-2.85-5.784c-1.248-1.672-2.779-3.005-4.593-3.998c-1.816-0.992-3.885-1.489-6.21-1.489
				c-2.439,0-4.566,0.525-6.38,1.574c-1.816,1.05-3.332,2.424-4.551,4.125c-1.22,1.701-2.141,3.644-2.765,5.827
				C342.065,277.495,341.754,279.721,341.754,281.988z"/>
			<path fill="#11242F" d="M407.337,277.565v34.536h-13.95v-60.395h10.888l28.156,35.471v-35.471h13.95v60.395h-11.228
				L407.337,277.565z"/>
			<path fill="#11242F" d="M497.078,306.231c-2.156,2.156-4.438,3.743-6.848,4.764c-2.411,1.021-5.034,1.531-7.868,1.531
				c-3.8,0-7.387-0.851-10.76-2.552c-3.375-1.701-6.324-3.969-8.847-6.805c-2.524-2.835-4.523-6.138-5.997-9.91
				c-1.475-3.771-2.212-7.698-2.212-11.781c0-4.139,0.736-8.052,2.212-11.739c1.474-3.686,3.516-6.89,6.125-9.612
				c2.608-2.722,5.67-4.877,9.187-6.465c3.516-1.587,7.316-2.382,11.399-2.382c5.329,0,10.008,1.177,14.035,3.53
				c4.026,2.354,7.031,5.572,9.017,9.655l-10.463,7.826c-1.248-2.722-3.049-4.834-5.402-6.337c-2.354-1.502-4.891-2.254-7.613-2.254
				c-2.156,0-4.098,0.468-5.827,1.404c-1.73,0.936-3.232,2.241-4.508,3.913c-1.276,1.673-2.254,3.615-2.935,5.827
				c-0.68,2.212-1.021,4.593-1.021,7.145c0,2.609,0.368,5.019,1.106,7.23c0.736,2.212,1.757,4.126,3.062,5.742
				c1.304,1.616,2.863,2.879,4.678,3.785c1.814,0.908,3.799,1.361,5.954,1.361c2.495,0,4.877-0.609,7.145-1.829
				c2.267-1.219,4.394-3.075,6.38-5.571v-2.042h-11.654v-10.122h23.222v31.558h-11.569V306.231z"/>
			<path fill="#11242F" d="M543.777,300.192c2.382,0,4.394-0.496,6.039-1.489c1.644-0.991,2.977-2.31,3.998-3.955
				c1.021-1.644,1.744-3.53,2.169-5.657c0.425-2.127,0.638-4.296,0.638-6.507v-30.878h13.95v30.878c0,4.197-0.525,8.11-1.574,11.739
				c-1.05,3.63-2.666,6.805-4.848,9.527c-2.184,2.722-4.963,4.863-8.336,6.422c-3.375,1.56-7.387,2.339-12.037,2.339
				c-4.82,0-8.931-0.821-12.334-2.467c-3.402-1.644-6.167-3.841-8.294-6.592c-2.127-2.75-3.687-5.94-4.679-9.57
				c-0.993-3.629-1.488-7.428-1.488-11.398v-30.878h13.95v30.878c0,2.326,0.226,4.538,0.68,6.635
				c0.453,2.099,1.191,3.97,2.212,5.614c1.021,1.645,2.339,2.949,3.956,3.913C539.396,299.711,541.395,300.192,543.777,300.192z"/>
			<path fill="#11242F" d="M623.736,299.852v12.249h-42.447v-60.395h41.681v12.249h-27.731v11.739h23.818v11.313h-23.818v12.845
				H623.736z"/>
			<path fill="#11242F" d="M668.139,269.399c-0.227-0.226-0.85-0.651-1.871-1.276c-1.021-0.624-2.297-1.276-3.828-1.956
				c-1.531-0.681-3.205-1.276-5.019-1.786c-1.815-0.51-3.63-0.766-5.444-0.766c-2.382,0-4.211,0.425-5.487,1.276
				c-1.276,0.851-1.914,2.099-1.914,3.743c0,1.021,0.283,1.872,0.85,2.552c0.566,0.681,1.374,1.291,2.424,1.829
				c1.049,0.54,2.352,1.035,3.913,1.489c1.559,0.454,3.36,0.965,5.402,1.531c2.892,0.795,5.5,1.659,7.826,2.594
				c2.324,0.936,4.309,2.099,5.954,3.488c1.644,1.39,2.905,3.077,3.785,5.061c0.879,1.986,1.319,4.368,1.319,7.145
				c0,3.402-0.638,6.281-1.914,8.634c-1.276,2.354-2.964,4.253-5.061,5.699c-2.099,1.446-4.523,2.496-7.273,3.147
				c-2.751,0.651-5.572,0.978-8.464,0.978c-2.212,0-4.466-0.17-6.763-0.51s-4.551-0.836-6.763-1.489
				c-2.212-0.651-4.367-1.431-6.465-2.339c-2.099-0.906-4.027-1.956-5.784-3.147l6.125-12.164c0.283,0.285,1.049,0.823,2.297,1.616
				c1.247,0.795,2.778,1.588,4.594,2.382c1.814,0.795,3.856,1.503,6.125,2.127c2.267,0.625,4.564,0.936,6.89,0.936
				c4.934,0,7.401-1.502,7.401-4.508c0-1.134-0.37-2.069-1.106-2.807c-0.738-0.737-1.758-1.404-3.062-1.999
				c-1.305-0.596-2.836-1.148-4.593-1.659c-1.758-0.51-3.687-1.077-5.784-1.701c-2.779-0.85-5.189-1.772-7.231-2.764
				c-2.042-0.992-3.743-2.14-5.104-3.445c-1.361-1.304-2.369-2.807-3.02-4.508c-0.653-1.701-0.978-3.685-0.978-5.954
				c0-3.175,0.596-5.982,1.786-8.421c1.191-2.438,2.807-4.494,4.849-6.167c2.042-1.672,4.409-2.935,7.103-3.785
				c2.693-0.85,5.542-1.276,8.549-1.276c2.155,0,4.253,0.199,6.295,0.596c2.042,0.397,3.983,0.908,5.827,1.531
				c1.842,0.625,3.586,1.333,5.231,2.127c1.644,0.795,3.118,1.588,4.423,2.382L668.139,269.399z"/>
		</g>
	</g>
</g>
<g id="Horizontal_Lockup_600px">
</g>
<g id="Horizontal_Lockup_200pc">
</g>
</svg>
