<svg xmlns="http://www.w3.org/2000/svg" viewBox="0 0 56 56"><defs><style>.cls-1{fill:#fff;}</style></defs><title>Asset 2</title><g id="Layer_2" data-name="Layer 2"><g id="Layer_1-2" data-name="Layer 1"><g id="Layer_4" data-name="Layer 4"><path class="cls-1" d="M19.79,56H1.64A1.64,1.64,0,0,1,0,54.36V1.64A1.64,1.64,0,0,1,1.64,0H19.79a1.86,1.86,0,0,1,2,1.64V54.36A1.86,1.86,0,0,1,19.79,56Z"/><path class="cls-1" d="M54.36,56H36.21a1.86,1.86,0,0,1-2-1.64V1.64a1.86,1.86,0,0,1,2-1.64H54.36A1.64,1.64,0,0,1,56,1.64V54.36A1.64,1.64,0,0,1,54.36,56Z"/></g></g></g></svg>