<?xml version="1.0" encoding="utf-8"?>
<!-- Generator: Adobe Illustrator 18.1.1, SVG Export Plug-In . SVG Version: 6.00 Build 0)  -->
<!DOCTYPE svg PUBLIC "-//W3C//DTD SVG 1.1//EN" "http://www.w3.org/Graphics/SVG/1.1/DTD/svg11.dtd">
<svg version="1.1" id="Layer_1" xmlns="http://www.w3.org/2000/svg" xmlns:xlink="http://www.w3.org/1999/xlink" x="0px" y="0px"
	 viewBox="0 0 60 60" enable-background="new 0 0 60 60" xml:space="preserve">
<g id="Layer_3">
</g>
<g id="Layer_4">
	<path fill="#C9CDCF" d="M58,54.7L58,54.7l-14.8-15c7.4-9.3,6.9-23.1-1.7-31.7c-4.4-4.5-10.4-7-16.7-7S12.6,3.5,8.2,8
		C-1,17.2-1,32.3,8.2,41.6c4.4,4.5,10.4,7,16.7,7c5.4,0,10.6-1.9,14.7-5.2l14.7,14.9l0,0c0,0,0,0,0,0c1,1,2.6,1,3.6,0
		C58.9,57.3,58.9,55.7,58,54.7z M11.3,38.5C3.8,31,3.8,18.6,11.3,11c3.6-3.7,8.4-5.7,13.6-5.7s9.9,2,13.6,5.7
		c7.5,7.6,7.5,19.9,0,27.5c-3.6,3.7-8.4,5.7-13.6,5.7S14.9,42.2,11.3,38.5z"/>
</g>
</svg>
