<?xml version="1.0" encoding="utf-8"?>
<!-- Generator: Adobe Illustrator 19.1.0, SVG Export Plug-In . SVG Version: 6.00 Build 0)  -->
<!DOCTYPE svg PUBLIC "-//W3C//DTD SVG 1.1//EN" "http://www.w3.org/Graphics/SVG/1.1/DTD/svg11.dtd">
<svg version="1.1" id="Layer_1" xmlns="http://www.w3.org/2000/svg" xmlns:xlink="http://www.w3.org/1999/xlink" x="0px" y="0px"
	 viewBox="0 0 60 60" enable-background="new 0 0 60 60" xml:space="preserve">
<g id="Layer_3">
</g>
<g id="Layer_4">
	<g>
		<path fill="#4799FC" d="M48.6,15.7H12.1c-0.3,0-0.6,0.3-0.6,0.6v37.2c0,3,2.4,5.5,5.5,5.5h26.9c3,0,5.5-2.4,5.5-5.5V16.4
			C49.3,16,49,15.7,48.6,15.7z"/>
		<path fill="#4799FC" d="M50.8,6.5H36V3.6C36,3.3,35.7,3,35.4,3H24.6C24.3,3,24,3.3,24,3.6v2.8H9.2c-0.3,0-0.6,0.3-0.6,0.6V12
			c0,0.3,0.3,0.6,0.6,0.6h41.7c0.3,0,0.6-0.3,0.6-0.6V7.1C51.5,6.7,51.2,6.5,50.8,6.5z"/>
	</g>
</g>
</svg>
