<svg id="Layer_1" data-name="Layer 1" xmlns="http://www.w3.org/2000/svg" viewBox="0 0 60 60"><defs><style>.cls-1{fill:none;stroke:#c9cdcf;stroke-miterlimit:10;stroke-width:4px;}</style></defs><title>i</title><g id="Layer_4" data-name="Layer 4"><path class="cls-1" d="M31.28,4.78l7.24,14.82a1.43,1.43,0,0,0,1.07.79l16.19,2.38a1.44,1.44,0,0,1,.79,2.46L44.85,36.77A1.45,1.45,0,0,0,44.44,38l2.77,16.29a1.43,1.43,0,0,1-2.07,1.52L30.66,48.16a1.41,1.41,0,0,0-1.33,0L14.86,55.85a1.43,1.43,0,0,1-2.07-1.52L15.56,38a1.45,1.45,0,0,0-.41-1.27L3.43,25.23a1.44,1.44,0,0,1,.79-2.46l16.19-2.38a1.43,1.43,0,0,0,1.07-.79L28.72,4.78A1.42,1.42,0,0,1,31.28,4.78Z"/></g></svg>