<?xml version="1.0" encoding="utf-8"?>
<!-- Generator: Adobe Illustrator 18.1.1, SVG Export Plug-In . SVG Version: 6.00 Build 0)  -->
<!DOCTYPE svg PUBLIC "-//W3C//DTD SVG 1.1//EN" "http://www.w3.org/Graphics/SVG/1.1/DTD/svg11.dtd">
<svg version="1.1" id="Layer_1" xmlns="http://www.w3.org/2000/svg" xmlns:xlink="http://www.w3.org/1999/xlink" x="0px" y="0px"
	 viewBox="0 0 60 60" enable-background="new 0 0 60 60" xml:space="preserve">
<g id="Layer_3">
</g>
<g id="Layer_4">
	<g>
		<path fill="#C9CDCF" d="M30,4.2l7.5,15.4c0.5,1,1.4,1.7,2.6,1.9l16.8,2.5L44.6,36c-0.8,0.8-1.2,1.9-1,3l2.9,17l-15-8
			c-0.5-0.3-1-0.4-1.6-0.4c-0.6,0-1.1,0.1-1.6,0.4l-15,8l2.9-17c0.2-1.1-0.2-2.2-1-3l-12.2-12L20,21.5c1.1-0.2,2.1-0.9,2.6-1.9
			L30,4.2 M30,1.9c-0.5,0-1.1,0.3-1.4,0.9l-7.8,16c-0.2,0.5-0.7,0.8-1.2,0.9L2.3,22.2c-1.3,0.2-1.8,1.8-0.8,2.7L14,37.3
			c0.4,0.4,0.5,0.9,0.4,1.4l-3,17.6c-0.2,1,0.6,1.8,1.5,1.8c0.2,0,0.5-0.1,0.7-0.2l15.6-8.3c0.2-0.1,0.5-0.2,0.7-0.2
			c0.2,0,0.5,0.1,0.7,0.2l15.6,8.3c0.2,0.1,0.5,0.2,0.7,0.2c0.9,0,1.7-0.8,1.5-1.8l-3-17.6c-0.1-0.5,0.1-1,0.4-1.4l12.6-12.5
			c0.9-0.9,0.4-2.5-0.8-2.7l-17.4-2.6c-0.5-0.1-0.9-0.4-1.2-0.9l-7.8-16C31.1,2.2,30.5,1.9,30,1.9L30,1.9z"/>
	</g>
</g>
</svg>
