<?xml version="1.0" encoding="utf-8"?>
<!-- Generator: Adobe Illustrator 18.1.1, SVG Export Plug-In . SVG Version: 6.00 Build 0)  -->
<!DOCTYPE svg PUBLIC "-//W3C//DTD SVG 1.1//EN" "http://www.w3.org/Graphics/SVG/1.1/DTD/svg11.dtd">
<svg version="1.1" id="Layer_1" xmlns="http://www.w3.org/2000/svg" xmlns:xlink="http://www.w3.org/1999/xlink" x="0px" y="0px"
	 viewBox="0 0 60 60" enable-background="new 0 0 60 60" xml:space="preserve">
<g id="Layer_3">
</g>
<g id="Layer_4">
	<path fill="#ffdc5c" d="M31.4,3.2L39.1,19c0.2,0.5,0.7,0.8,1.2,0.8l17.4,2.5c1.3,0.2,1.8,1.7,0.8,2.6L46,37.2
		c-0.4,0.4-0.5,0.9-0.4,1.4l3,17.3c0.2,1.3-1.1,2.2-2.2,1.6l-15.6-8.2c-0.4-0.2-1-0.2-1.4,0l-15.6,8.2c-1.1,0.6-2.4-0.4-2.2-1.6
		l3-17.3c0.1-0.5-0.1-1-0.4-1.4L1.5,24.9c-0.9-0.9-0.4-2.4,0.8-2.6l17.4-2.5c0.5-0.1,0.9-0.4,1.2-0.8l7.8-15.8
		C29.2,2.1,30.8,2.1,31.4,3.2z"/>
</g>
</svg>
