<svg xmlns="http://www.w3.org/2000/svg" viewBox="0 0 488.32 160"><defs><style>.cls-1{fill:#ffbf00;}</style></defs><title>Artboard 48</title><g id="Layer_14" data-name="Layer 14"><path class="cls-1" d="M41.39,147.5H13.65V12.5H79a45.55,45.55,0,0,1,14.33,2.57,41.53,41.53,0,0,1,14.23,8.27,45.65,45.65,0,0,1,10.93,14.88q4.41,9.19,4.41,22.41,0,25.9-14.88,40.23a38.48,38.48,0,0,1-9.92,7.35,56.2,56.2,0,0,1-9.64,3.86,36.29,36.29,0,0,1-7.71,1.47q-3.22.19-4.32.18H41.39Zm0-61.53H76.84A23.32,23.32,0,0,0,82,85.23a13.19,13.19,0,0,0,6-3.4,22.21,22.21,0,0,0,5-7.62Q95,69.26,95,60.62a27.27,27.27,0,0,0-1.65-10.38,15.8,15.8,0,0,0-4.13-6.06,14.38,14.38,0,0,0-5.33-2.94,18.4,18.4,0,0,0-5.05-.83H41.39Z"/><path class="cls-1" d="M203.75,147.32A64.72,64.72,0,0,1,177.58,142a67.73,67.73,0,0,1-21.31-14.51,69.67,69.67,0,0,1-14.42-21.4,64.72,64.72,0,0,1-5.33-26.17,64.74,64.74,0,0,1,5.33-26.17,69.74,69.74,0,0,1,14.42-21.4,67.81,67.81,0,0,1,21.31-14.51,67,67,0,0,1,52.35,0,67.84,67.84,0,0,1,21.31,14.51,69.77,69.77,0,0,1,14.42,21.4A64.78,64.78,0,0,1,271,79.91a64.75,64.75,0,0,1-5.33,26.17,69.71,69.71,0,0,1-14.42,21.4A67.76,67.76,0,0,1,229.93,142,64.74,64.74,0,0,1,203.75,147.32Zm0-107.08a38.2,38.2,0,0,0-15.43,3.12,39.46,39.46,0,0,0-12.49,8.54,41.29,41.29,0,0,0-8.45,12.58,39.68,39.68,0,0,0,0,30.86,41.27,41.27,0,0,0,8.45,12.58,39.4,39.4,0,0,0,12.49,8.54,38.17,38.17,0,0,0,15.43,3.12A37.72,37.72,0,0,0,219,116.46a40.47,40.47,0,0,0,21.12-21.12,39.68,39.68,0,0,0,0-30.86A40.47,40.47,0,0,0,219,43.36,37.75,37.75,0,0,0,203.75,40.24Z"/><path class="cls-1" d="M288.79,147.5V12.68h28.1V119.21h63.37V147.5Z"/><path class="cls-1" d="M431.88,104.52v42.61h-28.1V104.89l-43-92H391.1l26.82,65.2,26.82-65.2h29.94Z"/></g></svg>