<svg id="Layer_1" data-name="Layer 1" xmlns="http://www.w3.org/2000/svg" viewBox="0 0 60 60"><defs><style>.cls-1{fill:none;stroke:#767676;stroke-miterlimit:10;stroke-width:4px;}</style></defs><title>i</title><g id="Layer_4" data-name="Layer 4"><path class="cls-1" d="M31.28,4.82l7.24,14.8a1.43,1.43,0,0,0,1.07.79l16.19,2.37a1.44,1.44,0,0,1,.79,2.45L44.85,36.76A1.45,1.45,0,0,0,44.44,38L47.21,54.3a1.43,1.43,0,0,1-2.07,1.52L30.66,48.13a1.41,1.41,0,0,0-1.33,0L14.86,55.82a1.43,1.43,0,0,1-2.07-1.52L15.56,38a1.45,1.45,0,0,0-.41-1.27L3.43,25.23a1.44,1.44,0,0,1,.79-2.45l16.19-2.37a1.43,1.43,0,0,0,1.07-.79l7.24-14.8A1.42,1.42,0,0,1,31.28,4.82Z"/></g></svg>