<?xml version="1.0" encoding="utf-8"?>
<!-- Generator: Adobe Illustrator 18.1.1, SVG Export Plug-In . SVG Version: 6.00 Build 0)  -->
<!DOCTYPE svg PUBLIC "-//W3C//DTD SVG 1.1//EN" "http://www.w3.org/Graphics/SVG/1.1/DTD/svg11.dtd">
<svg version="1.1" id="Layer_1" xmlns="http://www.w3.org/2000/svg" xmlns:xlink="http://www.w3.org/1999/xlink" x="0px" y="0px"
	 viewBox="0 0 60 60" enable-background="new 0 0 60 60" xml:space="preserve">
<g id="Layer_3">
</g>
<g id="Layer_4">
	<g>
		<path fill="#11242F" d="M56.2,18L56.2,18c-3.1-6.6-8-10-8-10c-2.1,0.4-7.4,4.6-5.5,11.3c1.1,5,6.6,6.2,7,15.9
			c0.2,3.7-1.3,6.7-3.4,9c-1.8,1.8-4,3.2-6.5,4c0,0,0,0-0.1,0l0,0c-1.2,0.4-2.5,0.6-3.7,0.7c-0.9,0-1.6,0.7-1.6,1.6
			c0,0.8,0.6,1.5,1.4,1.6c0.4,0,0.8,0,1.2,0c12,0,21.7-9.7,21.7-21.7C59,25.9,58,21.7,56.2,18z"/>
		<path fill="#11242F" d="M30,30.3c-4.5,0-7.3,3.5-7.3,7.4c0,2.4,1.5,5.1,3.9,6.4c2.4,1.2,2.2,4.9-2.1,4.9c-1.5,0-3-0.2-4.4-0.7l0,0
			l0,0c-2.5-0.8-4.8-2.2-6.5-4c-2.1-2.2-3.5-5.3-3.4-8.9c0.4-9.7,6-10.9,7-15.9c1.9-6.7-3.3-10.9-5.5-11.3c0,0-4.9,3.3-8,10l0,0
			C2,21.7,1,25.9,1,30.3C1,42.3,10.7,52,22.7,52c8,0,14.5-6.4,14.5-14.6C37.3,34.2,34.5,30.3,30,30.3z"/>
	</g>
</g>
</svg>
