<svg id="Layer_1" data-name="Layer 1" xmlns="http://www.w3.org/2000/svg" viewBox="0 0 60 60"><defs><style>.cls-1{fill:#4799fc;}.cls-2{fill:#fff;}.cls-3{fill:none;stroke:#4799fc;stroke-miterlimit:10;stroke-width:1.62px;}</style></defs><title>i</title><path class="cls-1" d="M55,13H44.57a1.3,1.3,0,0,1-1.17-.74L42.33,10a4.56,4.56,0,0,0-4.11-2.61H21.78A4.56,4.56,0,0,0,17.67,10L16.6,12.29a1.3,1.3,0,0,1-1.17.74h-1.2V11.21a1.62,1.62,0,0,0-1.62-1.62H6.75a1.62,1.62,0,0,0-1.62,1.62V13H5A4.55,4.55,0,0,0,.5,17.57V48A4.55,4.55,0,0,0,5,52.59H55A4.55,4.55,0,0,0,59.5,48V17.57A4.55,4.55,0,0,0,55,13Z"/><path class="cls-2" d="M41.93,13l-1.07-2.27A2.92,2.92,0,0,0,38.22,9H21.78a2.92,2.92,0,0,0-2.64,1.68L18.07,13a2.92,2.92,0,0,1-2.64,1.68H5a2.92,2.92,0,0,0-2.92,2.92V48A2.92,2.92,0,0,0,5,51H55A2.92,2.92,0,0,0,57.88,48V17.57A2.92,2.92,0,0,0,55,14.66H44.57A2.92,2.92,0,0,1,41.93,13Z"/><rect class="cls-2" x="6.75" y="11.21" width="5.86" height="1.62"/><circle class="cls-3" cx="30" cy="32.23" r="14.29"/><rect class="cls-1" x="44.29" y="17.7" width="1.64" height="1.64"/></svg>