<svg id="Layer_1" data-name="Layer 1" xmlns="http://www.w3.org/2000/svg" viewBox="0 0 60 60"><defs><style>.cls-1{fill:#fff;}</style></defs><title>i</title><g id="Layer_4" data-name="Layer 4"><path class="cls-1" d="M58,54.68l0,0L43.2,39.7A24,24,0,0,0,41.52,8,23.38,23.38,0,0,0,8.2,8a24,24,0,0,0,0,33.63,23.36,23.36,0,0,0,31.4,1.73L54.34,58.26l0,0,0,0a2.49,2.49,0,0,0,3.56,0A2.56,2.56,0,0,0,58,54.68ZM11.29,38.55a19.63,19.63,0,0,1,0-27.51,19,19,0,0,1,27.13,0,19.63,19.63,0,0,1,0,27.51A19,19,0,0,1,11.29,38.55Z"/></g></svg>